<?xml version="1.0" encoding="UTF-8" standalone="no"?>
<svg width="161px" height="34px" viewBox="0 0 161 34" version="1.1" xmlns="http://www.w3.org/2000/svg" xmlns:xlink="http://www.w3.org/1999/xlink">
    <!-- Generator: sketchtool 3.7.2 (28276) - http://www.bohemiancoding.com/sketch -->
    <title>AA38ACB2-EF56-4C69-ACFD-0621BB2946A0</title>
    <desc>Created with sketchtool.</desc>
    <defs></defs>
    <g id="Symbols" stroke="none" stroke-width="1" fill="none" fill-rule="evenodd">
        <g id="Header_Desktop" transform="translate(-117.000000, -41.000000)">
            <g id="Apollo_Logo_Blue-Copy-3">
                <g transform="translate(117.000000, 41.000000)">
                    <path d="M117.045426,6.47914325 C117.045426,7.41832182 116.278088,8.17917534 115.334586,8.17917534 C114.388383,8.18025609 113.621044,7.41832182 113.621044,6.48022401 C113.621044,5.54374734 114.388383,4.78289382 115.334586,4.78289382 C116.278088,4.78289382 117.045426,5.54104545 117.045426,6.47914325" id="Fill-1" fill="#004E9E"></path>
                    <path d="M111.594029,8.91295587 C111.594029,9.66948636 110.975295,10.2817357 110.213901,10.2817357 C109.451427,10.2828164 108.833774,9.66948636 108.833774,8.91295587 C108.833774,8.15750614 109.451427,7.54201455 110.213901,7.54201455 C110.975295,7.54201455 111.594029,8.15750614 111.594029,8.91295587" id="Fill-3" fill="#004E9E"></path>
                    <path d="M131.985822,6.40521942 C131.985822,7.4027589 131.16985,8.21332728 130.163664,8.21332728 C129.156398,8.21332728 128.340426,7.40492042 128.340426,6.40521942 C128.340426,5.40767993 129.156398,4.59819231 130.163664,4.59819231 C131.16985,4.59819231 131.985822,5.40551841 131.985822,6.40521942" id="Fill-5" fill="#004E9E"></path>
                    <path d="M134.558566,2.10066901 C134.558566,3.09982964 133.743134,3.9082365 132.737489,3.9082365 C131.730763,3.9082365 130.915331,3.09982964 130.915331,2.10229015 C130.915331,1.10421029 131.730763,0.293641905 132.737489,0.293641905 C133.743134,0.293641905 134.558566,1.10204877 134.558566,2.10066901" id="Fill-7" fill="#004E9E"></path>
                    <path d="M123.520084,16.8982973 C123.520084,17.8969175 122.704652,18.7074859 121.698466,18.7074859 C120.692281,18.7074859 119.876309,17.8969175 119.876309,16.899378 C119.876309,15.9018386 120.692281,15.0923509 121.698466,15.0923509 C122.704652,15.0923509 123.520084,15.9007578 123.520084,16.8982973" id="Fill-9" fill="#004E9E"></path>
                    <path d="M128.653792,2.78197876 C128.653792,3.78167976 127.837279,4.59116738 126.830553,4.59116738 C125.823827,4.59116738 125.008395,3.78276052 125.008395,2.78305951 C125.008395,1.78606041 125.823827,0.976572785 126.830553,0.976572785 C127.837279,0.976572785 128.653792,1.78389889 128.653792,2.78197876" id="Fill-11" fill="#004E9E"></path>
                    <path d="M122.879951,4.27115499 C122.879951,5.25464462 122.077488,6.05062277 121.088054,6.05062277 C120.096999,6.05062277 119.294537,5.25464462 119.294537,4.27223574 C119.294537,3.29090762 120.096999,2.49384872 121.088054,2.49384872 C122.077488,2.49384872 122.879951,3.28982687 122.879951,4.27115499" id="Fill-13" fill="#004E9E"></path>
                    <path d="M126.79143,7.82268736 C126.788728,8.82130761 125.972756,9.62971447 124.96711,9.62863371 C123.959844,9.6264722 123.146574,8.81590382 123.148195,7.81836433 C123.149276,6.82136522 123.964708,6.01241798 124.971433,6.0145795 C125.977079,6.0145795 126.79143,6.82406712 126.79143,7.82268736" id="Fill-15" fill="#004E9E"></path>
                    <path d="M123.841987,10.9161405 C124.62932,11.5397378 124.75847,12.6766951 124.131631,13.4564618 C123.50317,14.2373094 122.359188,14.3675407 121.571856,13.743403 C120.786145,13.1208865 120.655913,11.9844697 121.282753,11.2030817 C121.909592,10.4243957 123.055736,10.2947048 123.841987,10.9161405" id="Fill-17" fill="#004E9E"></path>
                    <path d="M121.207046,8.91295587 C121.207046,9.84402875 120.445112,10.5994785 119.505933,10.5994785 C118.565674,10.5994785 117.805361,9.84402875 117.805361,8.91295587 C117.805361,7.98080223 118.565674,7.2253525 119.505933,7.2253525 C120.445112,7.2253525 121.207046,7.97972148 121.207046,8.91295587" id="Fill-19" fill="#004E9E"></path>
                    <path d="M119.505879,13.0111896 C119.505879,13.9125416 118.769342,14.6436743 117.858804,14.6436743 C116.948266,14.6447551 116.211729,13.9125416 116.211729,13.0111896 C116.211729,12.1098376 116.948266,11.3765434 117.858804,11.3765434 C118.769342,11.3765434 119.505879,12.107676 119.505879,13.0111896" id="Fill-21" fill="#004E9E"></path>
                    <path d="M118.712495,16.8972706 C118.712495,17.7213484 118.038642,18.3908779 117.206999,18.3908779 C116.375896,18.3908779 115.702584,17.7213484 115.702584,16.8983513 C115.702584,16.0753542 116.375896,15.4058247 117.206999,15.4058247 C118.038642,15.4058247 118.712495,16.0731927 118.712495,16.8972706" id="Fill-23" fill="#004E9E"></path>
                    <path d="M110.984806,13.0977043 C110.984806,13.7456186 110.454154,14.272488 109.799755,14.272488 C109.144816,14.272488 108.614164,13.7456186 108.614164,13.0977043 C108.614164,12.4487092 109.144816,11.9196782 109.799755,11.9196782 C110.454154,11.9196782 110.984806,12.4465477 110.984806,13.0977043" id="Fill-25" fill="#004E9E"></path>
                    <path d="M106.836533,12.0855746 C106.836533,12.6821529 106.348571,13.1652516 105.74821,13.1652516 C105.146768,13.1663324 104.660427,12.6821529 104.660427,12.0855746 C104.660427,11.4889962 105.146768,11.0048167 105.74821,11.0048167 C106.348571,11.0048167 106.836533,11.4879155 106.836533,12.0855746" id="Fill-27" fill="#004E9E"></path>
                    <path d="M110.915583,16.8982973 C110.915583,17.5472924 110.384391,18.0752426 109.729992,18.0752426 C109.073972,18.0752426 108.544401,17.5472924 108.544401,16.8982973 C108.544401,16.2493022 109.073972,15.7224328 109.729992,15.7224328 C110.384391,15.7224328 110.915583,16.2493022 110.915583,16.8982973" id="Fill-29" fill="#004E9E"></path>
                    <path d="M114.844138,14.9922187 C114.844138,15.6941709 114.270256,16.2637303 113.5629,16.2637303 C112.853382,16.2637303 112.281661,15.6941709 112.281661,14.9922187 C112.281661,14.2902665 112.853382,13.7201667 113.5629,13.7201667 C114.270256,13.7201667 114.844138,14.2891857 114.844138,14.9922187" id="Fill-31" fill="#004E9E"></path>
                    <path d="M115.550792,10.999521 C115.550792,11.8079279 114.890989,12.4634075 114.075557,12.4634075 C113.261206,12.4634075 112.601403,11.8068471 112.601403,11.0006018 C112.601403,10.1921949 113.261206,9.5356345 114.075557,9.5356345 C114.890989,9.53671526 115.550792,10.1911141 115.550792,10.999521" id="Fill-33" fill="#004E9E"></path>
                    <path d="M148.428904,6.47914325 C148.428904,7.41832182 149.196242,8.17917534 150.139744,8.17917534 C151.086488,8.18025609 151.852745,7.41832182 151.852745,6.48022401 C151.852745,5.54374734 151.086488,4.78289382 150.139744,4.78289382 C149.196242,4.78289382 148.428904,5.54104545 148.428904,6.47914325" id="Fill-35" fill="#004E9E"></path>
                    <path d="M153.880355,8.91295587 C153.880355,9.66948636 154.498008,10.2817357 155.260483,10.2817357 C156.022957,10.2828164 156.64007,9.66948636 156.64007,8.91295587 C156.64007,8.15750614 156.022957,7.54201455 155.260483,7.54201455 C154.498008,7.54201455 153.880355,8.15750614 153.880355,8.91295587" id="Fill-37" fill="#004E9E"></path>
                    <path d="M133.488508,6.40521942 C133.488508,7.4027589 134.30448,8.21332728 135.310665,8.21332728 C136.317391,8.21332728 137.131202,7.40492042 137.131202,6.40521942 C137.131202,5.40767993 136.317391,4.59819231 135.310665,4.59819231 C134.30448,4.59819231 133.488508,5.40551841 133.488508,6.40521942" id="Fill-39" fill="#004E9E"></path>
                    <path d="M141.95376,16.8982973 C141.95376,17.8969175 142.769732,18.7074859 143.774837,18.7074859 C144.781563,18.7074859 145.598075,17.8969175 145.598075,16.899378 C145.598075,15.9018386 144.781563,15.0923509 143.774837,15.0923509 C142.769732,15.0923509 141.95376,15.9007578 141.95376,16.8982973" id="Fill-41" fill="#004E9E"></path>
                    <path d="M136.820538,2.78197876 C136.820538,3.78167976 137.63651,4.59116738 138.642156,4.59116738 C139.648881,4.59116738 140.463773,3.78276052 140.463773,2.78305951 C140.463773,1.78606041 139.648881,0.976572785 138.642156,0.976572785 C137.63651,0.976572785 136.820538,1.78389889 136.820538,2.78197876" id="Fill-43" fill="#004E9E"></path>
                    <path d="M142.593352,4.27115499 C142.593352,5.25464462 143.396896,6.05062277 144.386329,6.05062277 C145.376844,6.05062277 146.179847,5.25464462 146.179847,4.27223574 C146.179847,3.29090762 145.376844,2.49384872 144.386329,2.49384872 C143.396896,2.49384872 142.593352,3.28982687 142.593352,4.27115499" id="Fill-45" fill="#004E9E"></path>
                    <path d="M138.681819,7.82268736 C138.6829,8.82130761 139.501034,9.62971447 140.507219,9.62863371 C141.513945,9.6264722 142.328837,8.81590382 142.326675,7.81836433 C142.325054,6.82136522 141.509082,6.01241798 140.502356,6.0145795 C139.49617,6.0145795 138.680739,6.82406712 138.681819,7.82268736" id="Fill-47" fill="#004E9E"></path>
                    <path d="M141.630181,10.9161405 C140.842849,11.5397378 140.714239,12.6766951 141.341618,13.4564618 C141.968998,14.2373094 143.114602,14.3675407 143.902474,13.743403 C144.688185,13.1208865 144.817876,11.9844697 144.190496,11.2030817 C143.564737,10.4243957 142.418594,10.2947048 141.630181,10.9161405" id="Fill-49" fill="#004E9E"></path>
                    <path d="M144.267284,8.91295587 C144.267284,9.84402875 145.029218,10.5994785 145.966776,10.5994785 C146.908656,10.5994785 147.668969,9.84402875 147.668969,8.91295587 C147.668969,7.98080223 146.908656,7.2253525 145.966776,7.2253525 C145.029218,7.2253525 144.267284,7.97972148 144.267284,8.91295587" id="Fill-51" fill="#004E9E"></path>
                    <path d="M145.968451,13.0111896 C145.968451,13.9125416 146.704987,14.6436743 147.614985,14.6436743 C148.524984,14.6447551 149.262601,13.9125416 149.262601,13.0111896 C149.262601,12.1098376 148.524984,11.3765434 147.614985,11.3765434 C146.704987,11.3765434 145.968451,12.107676 145.968451,13.0111896" id="Fill-53" fill="#004E9E"></path>
                    <path d="M146.761835,16.8972706 C146.761835,17.7213484 147.435688,18.3908779 148.267331,18.3908779 C149.098434,18.3908779 149.771746,17.7213484 149.771746,16.8983513 C149.771746,16.0753542 149.098434,15.4058247 148.267331,15.4058247 C147.435688,15.4058247 146.761835,16.0731927 146.761835,16.8972706" id="Fill-55" fill="#004E9E"></path>
                    <path d="M154.489578,13.0977043 C154.489578,13.7456186 155.02023,14.272488 155.674629,14.272488 C156.329568,14.272488 156.85914,13.7456186 156.85914,13.0977043 C156.85914,12.4487092 156.329568,11.9196782 155.674629,11.9196782 C155.02023,11.9196782 154.489578,12.4465477 154.489578,13.0977043" id="Fill-57" fill="#004E9E"></path>
                    <path d="M158.637851,12.0855746 C158.637851,12.6821529 159.124732,13.1652516 159.726714,13.1652516 C160.327616,13.1663324 160.813957,12.6821529 160.813957,12.0855746 C160.813957,11.4889962 160.327616,11.0048167 159.726714,11.0048167 C159.124732,11.0048167 158.637851,11.4879155 158.637851,12.0855746" id="Fill-59" fill="#004E9E"></path>
                    <path d="M154.558692,16.8982973 C154.558692,17.5472924 155.089885,18.0752426 155.743743,18.0752426 C156.398683,18.0752426 156.929875,17.5472924 156.929875,16.8982973 C156.929875,16.2493022 156.398683,15.7224328 155.743743,15.7224328 C155.089885,15.7224328 154.558692,16.2493022 154.558692,16.8982973" id="Fill-61" fill="#004E9E"></path>
                    <path d="M150.630192,14.9922187 C150.630192,15.6941709 151.203534,16.2637303 151.909809,16.2637303 C152.620407,16.2637303 153.192669,15.6941709 153.192669,14.9922187 C153.192669,14.2902665 152.620407,13.7201667 151.909809,13.7201667 C151.203534,13.7201667 150.630192,14.2891857 150.630192,14.9922187" id="Fill-63" fill="#004E9E"></path>
                    <path d="M149.923538,10.999521 C149.923538,11.8079279 150.583341,12.4634075 151.398232,12.4634075 C152.213124,12.4634075 152.872926,11.8068471 152.872926,11.0006018 C152.872926,10.1921949 152.213124,9.5356345 151.398232,9.5356345 C150.583341,9.53671526 149.923538,10.1911141 149.923538,10.999521" id="Fill-65" fill="#004E9E"></path>
                    <path d="M117.045426,27.3153979 C117.045426,26.3783808 116.278088,25.6169869 115.334586,25.6169869 C114.388383,25.6159062 113.621044,26.3783808 113.621044,27.3153979 C113.621044,28.2513342 114.388383,29.0138088 115.334586,29.0138088 C116.278088,29.0138088 117.045426,28.2545764 117.045426,27.3153979" id="Fill-67" fill="#004E9E"></path>
                    <path d="M111.594029,24.882612 C111.594029,24.1271623 110.975295,23.5138322 110.213901,23.5138322 C109.451427,23.5127514 108.833774,24.1271623 108.833774,24.882612 C108.833774,25.6380617 109.451427,26.2524725 110.213901,26.2524725 C110.975295,26.2524725 111.594029,25.6391425 111.594029,24.882612" id="Fill-69" fill="#004E9E"></path>
                    <path d="M134.558566,31.6953852 C134.558566,30.6967649 133.743134,29.8861966 132.737489,29.8861966 C131.730763,29.8861966 130.915331,30.6967649 130.915331,31.6943044 C130.915331,32.6918439 131.730763,33.5034931 132.737489,33.5034931 C133.743134,33.5034931 134.558566,32.6929247 134.558566,31.6953852" id="Fill-71" fill="#004E9E"></path>
                    <path d="M128.653792,31.0135891 C128.653792,30.0128073 127.837279,29.2044005 126.830553,29.2044005 C125.823827,29.2044005 125.008395,30.0128073 125.008395,31.0125083 C125.008395,32.0100478 125.823827,32.8195355 126.830553,32.8195355 C127.837279,32.8195355 128.653792,32.0111286 128.653792,31.0135891" id="Fill-73" fill="#004E9E"></path>
                    <path d="M122.879951,29.5233321 C122.879951,28.5409232 122.077488,27.7449451 121.088054,27.7449451 C120.096999,27.7449451 119.294537,28.5409232 119.294537,29.5233321 C119.294537,30.5046602 120.096999,31.3017191 121.088054,31.3017191 C122.077488,31.3017191 122.879951,30.505741 122.879951,29.5233321" id="Fill-75" fill="#004E9E"></path>
                    <path d="M123.841987,22.8794273 C124.62932,22.2579916 124.75847,21.1210343 124.131631,20.3401868 C123.50317,19.5587989 122.359188,19.4301887 121.571856,20.0527052 C120.786145,20.6746813 120.655913,21.812179 121.282753,22.5935669 C121.909592,23.3722529 123.055736,23.5008631 123.841987,22.8794273" id="Fill-77" fill="#004E9E"></path>
                    <path d="M119.505879,20.7864857 C119.505879,19.8829722 118.769342,19.1529203 117.858804,19.1529203 C116.948266,19.1518395 116.211729,19.8829722 116.211729,20.7864857 C116.211729,21.6878378 116.948266,22.4189705 117.858804,22.4189705 C118.769342,22.4189705 119.505879,21.6899993 119.505879,20.7864857" id="Fill-79" fill="#004E9E"></path>
                    <path d="M106.836533,21.7110741 C106.836533,21.1144957 106.348571,20.6303162 105.74821,20.6303162 C105.146768,20.6303162 104.660427,21.1144957 104.660427,21.7110741 C104.660427,22.3076524 105.146768,22.7918319 105.74821,22.7918319 C106.348571,22.7918319 106.836533,22.3081928 106.836533,21.7110741" id="Fill-81" fill="#004E9E"></path>
                    <path d="M114.844138,18.8044299 C114.844138,18.1024777 114.270256,17.5323779 113.5629,17.5323779 C112.853382,17.5312972 112.281661,18.1024777 112.281661,18.8044299 C112.281661,19.5063821 112.853382,20.0764819 113.5629,20.0764819 C114.270256,20.0764819 114.844138,19.5063821 114.844138,18.8044299" id="Fill-83" fill="#004E9E"></path>
                    <path d="M148.428904,27.3153979 C148.428904,26.3783808 149.196242,25.6169869 150.139744,25.6169869 C151.086488,25.6159062 151.852745,26.3783808 151.852745,27.3153979 C151.852745,28.2513342 151.086488,29.0138088 150.139744,29.0138088 C149.196242,29.0138088 148.428904,28.2545764 148.428904,27.3153979" id="Fill-85" fill="#004E9E"></path>
                    <path d="M153.880355,24.882612 C153.880355,24.1271623 154.498008,23.5138322 155.260483,23.5138322 C156.022957,23.5127514 156.64007,24.1271623 156.64007,24.882612 C156.64007,25.6380617 156.022957,26.2524725 155.260483,26.2524725 C154.498008,26.2524725 153.880355,25.6391425 153.880355,24.882612" id="Fill-87" fill="#004E9E"></path>
                    <path d="M136.820538,31.0135891 C136.820538,30.0128073 137.63651,29.2044005 138.642156,29.2044005 C139.648881,29.2044005 140.463773,30.0128073 140.463773,31.0125083 C140.463773,32.0100478 139.648881,32.8195355 138.642156,32.8195355 C137.63651,32.8195355 136.820538,32.0111286 136.820538,31.0135891" id="Fill-89" fill="#004E9E"></path>
                    <path d="M142.593352,29.5233321 C142.593352,28.5409232 143.396896,27.7449451 144.386329,27.7449451 C145.376844,27.7449451 146.179847,28.5409232 146.179847,29.5233321 C146.179847,30.5046602 145.376844,31.3017191 144.386329,31.3017191 C143.396896,31.3017191 142.593352,30.505741 142.593352,29.5233321" id="Fill-91" fill="#004E9E"></path>
                    <path d="M141.630181,22.8794273 C140.842849,22.2579916 140.714239,21.1210343 141.341618,20.3401868 C141.968998,19.5587989 143.114602,19.4301887 143.902474,20.0527052 C144.688185,20.6746813 144.817876,21.812179 144.190496,22.5935669 C143.564737,23.3722529 142.418594,23.5008631 141.630181,22.8794273" id="Fill-93" fill="#004E9E"></path>
                    <path d="M145.968451,20.7864857 C145.968451,19.8829722 146.704987,19.1529203 147.614985,19.1529203 C148.524984,19.1518395 149.262601,19.8829722 149.262601,20.7864857 C149.262601,21.6878378 148.524984,22.4189705 147.614985,22.4189705 C146.704987,22.4189705 145.968451,21.6899993 145.968451,20.7864857" id="Fill-95" fill="#004E9E"></path>
                    <path d="M158.637851,21.7110741 C158.637851,21.1144957 159.124732,20.6303162 159.726714,20.6303162 C160.327616,20.6303162 160.813957,21.1144957 160.813957,21.7110741 C160.813957,22.3076524 160.327616,22.7918319 159.726714,22.7918319 C159.124732,22.7918319 158.637851,22.3081928 158.637851,21.7110741" id="Fill-97" fill="#004E9E"></path>
                    <path d="M150.630192,18.8044299 C150.630192,18.1024777 151.203534,17.5323779 151.909809,17.5323779 C152.620407,17.5312972 153.192669,18.1024777 153.192669,18.8044299 C153.192669,19.5063821 152.620407,20.0764819 151.909809,20.0764819 C151.203534,20.0764819 150.630192,19.5063821 150.630192,18.8044299" id="Fill-99" fill="#004E9E"></path>
                    <path d="M106.836533,16.8982973 C106.836533,17.4948756 106.348571,17.9790551 105.74821,17.9790551 C105.146768,17.9801359 104.660427,17.4948756 104.660427,16.8982973 C104.660427,16.301719 105.146768,15.8186202 105.74821,15.8186202 C106.348571,15.8186202 106.836533,16.301719 106.836533,16.8982973" id="Fill-101" fill="#004E9E"></path>
                    <path d="M158.637851,16.8982973 C158.637851,17.4948756 159.124732,17.9790551 159.726714,17.9790551 C160.327616,17.9801359 160.813957,17.4948756 160.813957,16.8982973 C160.813957,16.301719 160.327616,15.8186202 159.726714,15.8186202 C159.124732,15.8186202 158.637851,16.301719 158.637851,16.8982973" id="Fill-103" fill="#004E9E"></path>
                    <path d="M48.6121634,25.4974011 C41.7817739,25.4974011 40.9317578,21.6580089 40.9317578,16.9134819 C40.9317578,12.137613 41.7817739,8.29714005 48.6121634,8.29714005 C55.442553,8.29714005 56.261227,12.137613 56.261227,16.9134819 C56.261227,21.6580089 55.442553,25.4974011 48.6121634,25.4974011 M48.6121634,10.8574554 C44.7727712,10.8574554 44.6149806,13.0740897 44.6149806,16.9134819 C44.6149806,20.7215322 44.7727712,22.9381665 48.6121634,22.9381665 C52.4202137,22.9381665 52.5780043,20.7215322 52.5780043,16.9134819 C52.5780043,13.0740897 52.4202137,10.8574554 48.6121634,10.8574554" id="Fill-105" fill="#004E9E"></path>
                    <path d="M65.9890743,24.498943 C66.0204163,24.6551125 65.92585,24.9053079 65.7367174,24.9674515 C65.3914152,25.1225402 64.5095168,25.3727357 63.1245257,25.3727357 C60.6377019,25.3727357 59.2527107,24.0623168 59.2527107,21.6284501 L59.2527107,2.6465598 C59.2527107,2.30395956 59.409961,2.17859165 59.7250019,2.11644808 L62.3053112,1.61713796 L62.4323003,1.61713796 C62.6841169,1.61713796 62.8413671,1.80410906 62.8413671,2.0851061 L62.8413671,21.4085159 C62.8413671,22.5325041 63.5341329,22.7513575 64.163134,22.7513575 C64.6348848,22.7513575 64.981808,22.6584124 65.3281909,22.62653 C65.4854412,22.62653 65.6108091,22.6584124 65.6740334,22.9064463 L65.9890743,24.498943 Z" id="Fill-107" fill="#004E9E"></path>
                    <path d="M75.0936486,24.498943 C75.1244502,24.6551125 75.0304242,24.9053079 74.8412916,24.9674515 C74.4959895,25.1225402 73.6135507,25.3727357 72.2285595,25.3727357 C69.7417357,25.3727357 68.3567446,24.0623168 68.3567446,21.6284501 L68.3567446,2.6465598 C68.3567446,2.30395956 68.5145352,2.17859165 68.8295761,2.11644808 L71.4098855,1.61713796 L71.5363341,1.61713796 C71.7881507,1.61713796 71.945401,1.80410906 71.945401,2.0851061 L71.945401,21.4085159 C71.945401,22.5325041 72.6381668,22.7513575 73.2677082,22.7513575 C73.739459,22.7513575 74.0858419,22.6584124 74.4327651,22.62653 C74.589475,22.62653 74.7153833,22.6584124 74.7786077,22.9064463 L75.0936486,24.498943 Z" id="Fill-109" fill="#004E9E"></path>
                    <path d="M83.7815366,25.4974011 C76.9511471,25.4974011 76.101131,21.6580089 76.101131,16.9134819 C76.101131,12.137613 76.9511471,8.29714005 83.7815366,8.29714005 C90.6119262,8.29714005 91.4306002,12.137613 91.4306002,16.9134819 C91.4306002,21.6580089 90.6119262,25.4974011 83.7815366,25.4974011 M83.7815366,10.8574554 C79.9421444,10.8574554 79.7843537,13.0740897 79.7843537,16.9134819 C79.7843537,20.7215322 79.9421444,22.9381665 83.7815366,22.9381665 C87.5895869,22.9381665 87.7473775,20.7215322 87.7473775,16.9134819 C87.7473775,13.0740897 87.5895869,10.8574554 83.7815366,10.8574554" id="Fill-111" fill="#004E9E"></path>
                    <path d="M21.2639105,24.7480576 C21.2639105,24.9982531 21.1072006,25.092279 20.886726,25.092279 L17.8335851,25.092279 C17.6136509,25.092279 17.3612939,24.9053079 17.29861,24.7161753 L14.4027194,16.0398513 L6.79904757,16.0398513 L3.93449892,24.77994 C3.87181496,24.9674515 3.65134036,25.092279 3.43086576,25.092279 L0.409066843,25.092279 C0.157250266,25.092279 0,24.9674515 0,24.7161753 C0,24.6859141 0,24.6540317 0.0318823563,24.5297446 L7.7749719,2.42878709 C7.86899784,2.21047401 8.15215639,2.02242215 8.34182939,2.02242215 L13.0485298,2.02242215 C13.2376624,2.02242215 13.5213613,2.21047401 13.6153873,2.42878709 L21.2325685,24.5297446 C21.2639105,24.6540317 21.2639105,24.7161753 21.2639105,24.7480576 L21.2639105,24.7480576 Z M10.751379,4.83239253 L10.387704,4.83239253 L7.64852324,13.1055938 L13.5527033,13.1055938 L10.751379,4.83239253 Z" id="Fill-113" fill="#004E9E"></path>
                    <path d="M31.6543164,8.29816677 C29.5765594,8.29816677 27.15296,8.67156861 25.358902,9.29678702 C23.8793445,9.79555676 23.5016196,10.2948669 23.5016196,11.793878 L23.5016196,31.178891 C23.5016196,31.4604284 23.6907522,31.7106239 24.0684771,31.6473995 L26.6179849,31.1480894 C26.9330258,31.0859458 27.090276,30.9297763 27.090276,30.5866357 L27.090276,26.8093871 L27.0897356,26.805064 L27.0897356,25.0245155 C28.1985932,25.2936242 29.6867967,25.497347 31.3084739,25.497347 C37.0991744,25.497347 38.4214816,22.2507505 38.4214816,16.9134279 C38.4214816,11.8879039 37.6033479,8.29816677 31.6543164,8.29816677 M30.5832854,22.9694545 C28.7584258,22.9694545 27.3734346,22.6268542 27.090276,22.5328283 L27.090276,11.512881 C27.5306848,11.3885938 29.4506512,10.9200853 30.8675247,10.9200853 C33.5115987,10.9200853 34.7696009,11.481539 34.7696009,16.8820859 C34.7696009,21.6892968 33.731533,22.9694545 30.5832854,22.9694545" id="Fill-115" fill="#004E9E"></path>
                    <path d="M134.27919,10.0274874 C134.27919,10.87264 133.588046,11.5578405 132.735868,11.5578405 C131.884771,11.560002 131.193627,10.8715593 131.193627,10.0274874 C131.193627,9.18341552 131.884771,8.49605353 132.735868,8.49605353 C133.588046,8.49713429 134.27919,9.18341552 134.27919,10.0274874" id="Fill-117" fill="#FE5000"></path>
                    <path d="M129.817498,10.4717869 C130.317348,11.1548259 130.166042,12.1129177 129.477599,12.6100663 C128.786995,13.1072149 127.821338,12.9532069 127.321487,12.270168 C126.820556,11.587129 126.971862,10.6279565 127.660845,10.1329694 C128.350909,9.63690151 129.316566,9.78766723 129.817498,10.4717869" id="Fill-119" fill="#FE5000"></path>
                    <path d="M126.470607,13.4323069 C127.281175,13.6916888 127.725367,14.556295 127.461121,15.3592981 C127.198497,16.1639223 126.325245,16.6005485 125.516298,16.3411666 C124.70627,16.0790828 124.263159,15.2182592 124.525783,14.4125543 C124.789488,13.6095512 125.660038,13.1718443 126.470607,13.4323069" id="Fill-121" fill="#FE5000"></path>
                    <path d="M135.656778,10.4717869 C135.156387,11.1548259 135.308234,12.1129177 135.996677,12.6100663 C136.685119,13.1072149 137.652398,12.9532069 138.152248,12.270168 C138.652099,11.587129 138.501333,10.6279565 137.811269,10.1329694 C137.121745,9.63690151 136.157169,9.78766723 135.656778,10.4717869" id="Fill-123" fill="#FE5000"></path>
                    <path d="M139.003183,13.4323069 C138.192614,13.6916888 137.747882,14.556295 138.011047,15.3592981 C138.274212,16.1639223 139.148545,16.6005485 139.957492,16.3411666 C140.766979,16.0790828 141.211171,15.2182592 140.947466,14.4125543 C140.684302,13.6095512 139.813211,13.1718443 139.003183,13.4323069" id="Fill-125" fill="#FE5000"></path>
                    <path d="M131.985822,27.3902944 C131.985822,26.3916742 131.16985,25.5832673 130.163664,25.5832673 C129.156398,25.5832673 128.340426,26.3916742 128.340426,27.3902944 C128.340426,28.3878339 129.156398,29.1973215 130.163664,29.1973215 C131.16985,29.1973215 131.985822,28.3889146 131.985822,27.3902944" id="Fill-127" fill="#FE5000"></path>
                    <path d="M126.79143,25.9728805 C126.788728,24.9742603 125.972756,24.1669341 124.96711,24.1680149 C123.959844,24.1680149 123.146574,24.9807448 123.148195,25.9782843 C123.149276,26.974743 123.964708,27.7831499 124.971433,27.7820691 C125.977079,27.7799076 126.79143,26.9715007 126.79143,25.9728805" id="Fill-129" fill="#FE5000"></path>
                    <path d="M121.207046,24.8836927 C121.207046,23.9515391 120.445112,23.1971701 119.505933,23.1971701 C118.565674,23.1971701 117.805361,23.9515391 117.805361,24.8836927 C117.805361,25.8147656 118.565674,26.5712961 119.505933,26.5712961 C120.445112,26.5712961 121.207046,25.8158464 121.207046,24.8836927" id="Fill-131" fill="#FE5000"></path>
                    <path d="M110.984806,20.6999711 C110.984806,20.050976 110.454154,19.521945 109.799755,19.521945 C109.144816,19.521945 108.614164,20.050976 108.614164,20.6999711 C108.614164,21.3489662 109.144816,21.8747548 109.799755,21.8747548 C110.454154,21.8747548 110.984806,21.3489662 110.984806,20.6999711" id="Fill-133" fill="#FE5000"></path>
                    <path d="M115.550792,22.7981543 C115.550792,21.9897475 114.890989,21.3342678 114.075557,21.3342678 C113.261206,21.3331871 112.601403,21.9908282 112.601403,22.7970736 C112.601403,23.6043997 113.261206,24.2609601 114.075557,24.2609601 C114.890989,24.2598793 115.550792,23.6043997 115.550792,22.7981543" id="Fill-135" fill="#FE5000"></path>
                    <path d="M134.27919,23.7680805 C134.27919,22.9240086 133.588046,22.2388081 132.735868,22.2388081 C131.884771,22.2377274 131.193627,22.9240086 131.193627,23.7680805 C131.193627,24.6137735 131.884771,25.2984336 132.735868,25.2984336 C133.588046,25.2984336 134.27919,24.6137735 134.27919,23.7680805" id="Fill-137" fill="#FE5000"></path>
                    <path d="M129.817498,23.3237269 C130.317348,22.6417687 130.166042,21.6836769 129.477599,21.187609 C128.786995,20.6893796 127.821338,20.8433876 127.321487,21.5264266 C126.820556,22.2100059 126.971862,23.1664766 127.660845,23.6636252 C128.350909,24.1596931 129.316566,24.0078466 129.817498,23.3237269" id="Fill-139" fill="#FE5000"></path>
                    <path d="M126.470607,20.3643417 C127.281175,20.1044195 127.725367,19.2425151 127.461121,18.4373505 C127.198497,17.6316455 126.325245,17.1961001 125.516298,17.455482 C124.70627,17.7175658 124.263159,18.5783894 124.525783,19.383554 C124.789488,20.1870974 125.660038,20.6248044 126.470607,20.3643417" id="Fill-141" fill="#FE5000"></path>
                    <path d="M133.488508,27.3902944 C133.488508,26.3916742 134.30448,25.5832673 135.310665,25.5832673 C136.317391,25.5832673 137.131202,26.3916742 137.131202,27.3902944 C137.131202,28.3878339 136.317391,29.1973215 135.310665,29.1973215 C134.30448,29.1973215 133.488508,28.3889146 133.488508,27.3902944" id="Fill-143" fill="#FE5000"></path>
                    <path d="M138.681819,25.9728805 C138.6829,24.9742603 139.501034,24.1669341 140.507219,24.1680149 C141.513945,24.1680149 142.328837,24.9807448 142.326675,25.9782843 C142.325054,26.974743 141.509082,27.7831499 140.502356,27.7820691 C139.49617,27.7799076 138.680739,26.9715007 138.681819,25.9728805" id="Fill-145" fill="#FE5000"></path>
                    <path d="M144.267284,24.8836927 C144.267284,23.9515391 145.029218,23.1971701 145.966776,23.1971701 C146.908656,23.1971701 147.668969,23.9515391 147.668969,24.8836927 C147.668969,25.8147656 146.908656,26.5712961 145.966776,26.5712961 C145.029218,26.5712961 144.267284,25.8158464 144.267284,24.8836927" id="Fill-147" fill="#FE5000"></path>
                    <path d="M154.489578,20.6999711 C154.489578,20.050976 155.02023,19.521945 155.674629,19.521945 C156.329568,19.521945 156.85914,20.050976 156.85914,20.6999711 C156.85914,21.3489662 156.329568,21.8747548 155.674629,21.8747548 C155.02023,21.8747548 154.489578,21.3489662 154.489578,20.6999711" id="Fill-149" fill="#FE5000"></path>
                    <path d="M149.923538,22.7981543 C149.923538,21.9897475 150.583341,21.3342678 151.398232,21.3342678 C152.213124,21.3331871 152.872926,21.9908282 152.872926,22.7970736 C152.872926,23.6043997 152.213124,24.2609601 151.398232,24.2609601 C150.583341,24.2598793 149.923538,23.6043997 149.923538,22.7981543" id="Fill-151" fill="#FE5000"></path>
                    <path d="M135.656778,23.3237269 C135.156387,22.6417687 135.308234,21.6836769 135.996677,21.187609 C136.685119,20.6893796 137.652398,20.8433876 138.152248,21.5264266 C138.652099,22.2100059 138.501333,23.1664766 137.811269,23.6636252 C137.121745,24.1596931 136.157169,24.0078466 135.656778,23.3237269" id="Fill-153" fill="#FE5000"></path>
                    <path d="M139.003183,20.3643417 C138.192614,20.1044195 137.747882,19.2425151 138.011047,18.4373505 C138.274212,17.6316455 139.148545,17.1961001 139.957492,17.455482 C140.766979,17.7175658 141.211171,18.5783894 140.947466,19.383554 C140.684302,20.1870974 139.813211,20.6248044 139.003183,20.3643417" id="Fill-155" fill="#FE5000"></path>
                </g>
            </g>
        </g>
    </g>
</svg>